<?xml version="1.0" encoding="UTF-8" standalone="no"?>
<svg
   width="33.919086"
   height="40.000011"
   viewBox="0 0 33.919086 40.000011"
   fill="none"
   version="1.1"
   id="svg867"
   sodipodi:docname="Logo.svg"
   xmlns:inkscape="http://www.inkscape.org/namespaces/inkscape"
   xmlns:sodipodi="http://sodipodi.sourceforge.net/DTD/sodipodi-0.dtd"
   xmlns="http://www.w3.org/2000/svg"
   xmlns:svg="http://www.w3.org/2000/svg">
  <defs
     id="defs871" />
  <sodipodi:namedview
     id="namedview869"
     pagecolor="#ffffff"
     bordercolor="#666666"
     borderopacity="1.0"
     inkscape:showpageshadow="2"
     inkscape:pageopacity="0.0"
     inkscape:pagecheckerboard="0"
     inkscape:deskcolor="#d1d1d1"
     showgrid="false" />
  <path
     d="m 8.118328,14.2861 c -0.3023,0.1875 -0.48619,0.518 -0.48619,0.8738 v 9.9679 c 0,0.2421 0.08962,0.4757 0.25158,0.6557 0.75563,0.8399 2.06277,0.8691 2.85527,0.0639 l 0.0473,-0.048 c 0.1863,-0.1894 0.2908,-0.4444 0.2908,-0.71 v -8.5275 l 4.0255,-2.431 v 14.9228 c 0,0.6543 0.3475,1.2594 0.9127,1.5892 0.5825,0.3398 1.3042,0.3337 1.8809,-0.0159 l 7.9555,-4.8229 c 0.3074,-0.1863 0.4952,-0.5198 0.4952,-0.8793 v -9.9083 c 0,-0.2744 -0.1097,-0.5374 -0.3046,-0.7305 l -0.0351,-0.0348 c -0.8043,-0.7967 -2.1064,-0.7768 -2.8858,0.0443 -0.1782,0.1876 -0.2775,0.4365 -0.2775,0.6952 v 8.1176 c 0,0.2143 -0.1092,0.4139 -0.2898,0.5294 l -3.7163,2.3771 v -15.037 c 0,-0.6541 -0.3438,-1.26017 -0.9052,-1.5959 -0.5971,-0.35703 -1.3435,-0.35094 -1.9346,0.0158 z"
     fill="#ffffff"
     id="path863" />
  <path
     fill-rule="evenodd"
     clip-rule="evenodd"
     d="m 16.295488,0.19290099 c 0.4329,-0.2577072 0.9724,-0.2571646 1.4048,0.001413 L 33.251588,9.49304 c 0.414,0.24753 0.6675,0.69436 0.6675,1.17676 v 18.6604 c 0,0.4824 -0.2535,0.9292 -0.6675,1.1768 l -15.5513,9.2987 c -0.4324,0.2586 -0.9719,0.2591 -1.4048,0.0014 L 0.66979798,30.5066 C 0.25447798,30.2594 -2.3162842e-8,29.8117 -2.3162842e-8,29.3284 V 10.6716 C -2.3162842e-8,10.1883 0.25447798,9.74065 0.66979798,9.49345 Z M 30.178288,13.6717 c 0,-0.8419 -0.4412,-1.6222 -1.1627,-2.0561 l -10.7851,-6.48695 c -0.7586,-0.45624 -1.7067,-0.45777 -2.4667,-0.00398 L 4.890718,11.6167 c -0.7252,0.433 -1.16931,1.2155 -1.16931,2.0601 v 12.6589 c 0,0.8484 0.44797,1.6336 1.17821,2.0654 l 10.87307,6.4286 c 0.7556,0.4467 1.6948,0.4452 2.4489,-0.0039 l 10.7851,-6.4235 c 0.7265,-0.4327 1.1716,-1.2159 1.1716,-2.0615 z"
     fill="#ffffff"
     id="path865"
     inkscape:export-filename="path865.png"
     inkscape:export-xdpi="960"
     inkscape:export-ydpi="960" />
</svg>
