<?xml version="1.0" encoding="UTF-8" standalone="no"?>
<svg
   xmlns:dc="http://purl.org/dc/elements/1.1/"
   xmlns:cc="http://creativecommons.org/ns#"
   xmlns:rdf="http://www.w3.org/1999/02/22-rdf-syntax-ns#"
   xmlns:svg="http://www.w3.org/2000/svg"
   xmlns="http://www.w3.org/2000/svg"
   xmlns:sodipodi="http://sodipodi.sourceforge.net/DTD/sodipodi-0.dtd"
   xmlns:inkscape="http://www.inkscape.org/namespaces/inkscape"
   version="1.1"
   id="layer"
   x="0px"
   y="0px"
   viewBox="0 0 432.39423 130"
   xml:space="preserve"
   sodipodi:docname="sorbonne2.svg"
   inkscape:version="1.0.2 (e86c870879, 2021-01-15)"
   width="432.39423"
   height="130"><metadata
   id="metadata13"><rdf:RDF><cc:Work
       rdf:about=""><dc:format>image/svg+xml</dc:format><dc:type
         rdf:resource="http://purl.org/dc/dcmitype/StillImage" /><dc:title></dc:title></cc:Work></rdf:RDF></metadata><defs
   id="defs11" /><sodipodi:namedview
   pagecolor="#ffffff"
   bordercolor="#666666"
   borderopacity="1"
   objecttolerance="10"
   gridtolerance="10"
   guidetolerance="10"
   inkscape:pageopacity="0"
   inkscape:pageshadow="2"
   inkscape:window-width="1920"
   inkscape:window-height="1016"
   id="namedview9"
   showgrid="false"
   inkscape:zoom="1.2177914"
   inkscape:cx="311.00102"
   inkscape:cy="130.24026"
   inkscape:window-x="0"
   inkscape:window-y="0"
   inkscape:window-maximized="1"
   inkscape:current-layer="layer"
   fit-margin-top="0"
   fit-margin-left="0"
   fit-margin-right="0"
   fit-margin-bottom="0"
   lock-margins="false" />
<style
   type="text/css"
   id="style2">
	.st0{fill:#112970;}
	.st1{fill:#EF4136;}
</style>

<path
   class="st1"
   d="m 7.4296997,39.456517 c 0,0 5.2000003,4.9 12.1999903,4.9 3.7,0 7.1,-1.9 7.1,-5.7 0,-8.3 -22.9999903,-6.9 -22.9999903,-21.3 0,-7.9 7.1000003,-13.6 16.3999903,-13.6 9.6,0 14.7,5.1 14.7,5.1 l -3.9,6.9 c 0,0 -4.6,-4.2 -10.8,-4.2 -4.19999,0 -7.39999,2.3 -7.39999,5.6 0,8.3 22.99999,6.3 22.99999,21.3 0,7.4 -5.9,13.7 -16.1,13.7 -10.7999903,0 -16.7999903,-6.5 -16.7999903,-6.5 z m 65.6999903,5.1 c 9,0 16.1,-7.1 16.1,-16.8 0,-9.3 -7.1,-16.2 -16.1,-16.2 -9,0 -16.1,6.9 -16.1,16.2 -0.1,9.7 7.2,16.8 16.1,16.8 m 0,-40.8 c 14.4,0 25.3,10.5 25.3,23.9 0,13.9 -10.8,24.5 -25.3,24.5 -14.4,0 -25.3,-10.8 -25.3,-24.5 0,-13.4 10.8,-23.9 25.3,-23.9 m 56.40001,22.9 c 4.8,0 7.7,-2.8 7.7,-7.4 0,-4.5 -2,-7.3 -9,-7.3 h -6.8 v 14.7 z m -16.8,-22.1 h 15.7 c 5.2,0 7.7,0.5 9.9,1.4 4.9,2.2 8,6.6 8,12.8 0,5.6 -3.1,10.8 -8.3,12.8 v 0.2 c 0,0 0.6,0.6 1.7,2.3 l 10,17.6 h -9.9 l -9.7,-17.6 h -8.5 v 17.6 h -9 v -47.1 z m 68,39.7 c 4.5,0 7.1,-2.8 7.1,-6.8 0,-3.9 -2.6,-6.8 -7.1,-6.8 h -9.6 v 13.6 z m -0.9,-20.6 c 3.9,0 6,-2.6 6,-6 0,-3.4 -2,-5.9 -6.2,-5.9 h -8.5 v 11.9 z m -17.4,-19.1 h 17.4 c 8.8,0 15.1,4.3 15.1,12 0,4.3 -2.2,8.2 -5.9,10 v 0.2 c 5.4,1.5 7.9,6.3 7.9,11.1 0,9.4 -7.9,13.6 -16.8,13.6 h -17.8 v -46.9 z m 71.3,40 c 9,0 16.1,-7.1 16.1,-16.8 0,-9.3 -7.1,-16.2 -16.1,-16.2 -9,0 -16.1,6.9 -16.1,16.2 0,9.7 7.1,16.8 16.1,16.8 m 0,-40.8 c 14.4,0 25.3,10.5 25.3,23.9 0,13.9 -10.8,24.5 -25.3,24.5 -14.4,0 -25.3,-10.8 -25.3,-24.5 0,-13.4 10.9,-23.9 25.3,-23.9 m 40.4,0.8 h 9 l 18.5,27.2 c 1.9,2.8 4,7.3 4,7.3 h 0.2 c 0,0 -0.5,-4.5 -0.5,-7.3 v -27.2 h 8.8 v 46.9 h -8.8 l -18.5,-27 c -1.9,-2.8 -4,-7.3 -4,-7.3 h -0.2 c 0,0 0.5,4.5 0.5,7.3 v 27 h -9 z m 57.6,0 h 9 l 18.5,27.2 c 1.9,2.8 4,7.3 4,7.3 h 0.2 c 0,0 -0.5,-4.5 -0.5,-7.3 v -27.2 h 8.8 v 46.9 h -8.8 l -18.5,-27 c -1.9,-2.8 -4,-7.3 -4,-7.3 h -0.2 c 0,0 0.5,4.5 0.5,7.3 v 27 h -9 z m 57.8,0 v 46.9 h 30.4 v -7.3 h -21.5 v -12.7 h 16.4 v -7.4 h -16.4 v -12.1 h 20.4 v -7.4 z m -386.2000003,67.6 H 12.3297 v 30.400003 c 0,6.3 4.3,9.9 10.99999,9.9 6.6,0 11,-3.6 11,-10 V 72.156517 h 9 v 30.400003 c 0,10.7 -8,17.8 -19.9,17.8 -11.89999,0 -19.8999903,-7.3 -19.8999903,-17.8 z m 54.6999903,0.5 h 9 l 18.5,27.2 c 1.9,2.800003 4,7.300003 4,7.300003 h 0.2 c 0,0 -0.5,-4.5 -0.5,-7.300003 v -27.2 h 8.8 v 46.900003 h -8.8 l -18.5,-27.000003 c -1.9,-2.8 -4,-7.3 -4,-7.3 h -0.2 c 0,0 0.5,4.5 0.5,7.3 v 27.000003 h -9 z m 55.70001,0 h 9 v 46.900003 h -9 z m 18.6,0 h 9.6 l 10.8,30.600003 c 0.9,2.8 1.9,6.9 1.9,6.9 h 0.2 c 0,0 0.9,-4.2 1.9,-6.9 l 10.8,-30.600003 h 9.6 l -17.9,46.900003 h -8.8 z m 54,0 h 29.3 v 7.3 h -20.3 v 12.4 h 16.4 v 7.4 h -16.4 v 12.700003 h 21.5 v 7.3 h -30.5 z m 60.1,22 c 4.8,0 7.7,-2.8 7.7,-7.4 0,-4.5 -2,-7.3 -9,-7.3 h -6.8 v 14.7 z m -17,-22 h 15.7 c 5.2,0 7.7,0.5 9.9,1.4 4.9,2.2 8,6.6 8,12.8 0,5.6 -3.1,10.8 -8.3,12.8 v 0.2 c 0,0 0.6,0.600003 1.7,2.300003 l 10,17.6 h -9.9 l -9.7,-17.6 h -8.5 v 17.6 h -9 z m 49.8,34.900003 c 0,0 5.2,4.9 12.2,4.9 3.7,0 7.1,-1.9 7.1,-5.7 0,-8.300003 -23,-6.900003 -23,-21.300003 0,-7.9 6.9,-13.6 16.4,-13.6 9.6,0 14.7,5.1 14.7,5.1 l -3.9,6.9 c 0,0 -4.6,-4.2 -10.8,-4.2 -4.2,0 -7.4,2.3 -7.4,5.6 0,8.3 23,6.3 23,21.300003 0,7.4 -5.9,13.7 -16.1,13.7 -10.8,0 -16.8,-6.5 -16.8,-6.5 z m 40.6,-34.900003 h 9 v 46.900003 h -9 z m 34.9,7.2 h -16.1 v -7.3 h 40.9 v 7.3 h -16.1 v 39.700003 h -8.8 V 79.856517 Z m 34.8,-7.2 v 46.900003 h 30.4 v -7.4 h -21.5 V 99.456517 h 16.5 v -7.4 h -16.5 v -12.4 h 20.4 v -7.1 h -29.3 z m 16.8,-12.1 -5.2,9 h 7.1 l 7.3,-9 z"
   id="path6" />
<rect
   style="fill:none"
   id="rect17"
   width="163.70889"
   height="258.31537"
   x="0"
   y="0" /><rect
   style="fill:none"
   id="rect19"
   width="442.26453"
   height="136.68123"
   x="177.1297"
   y="72.656517" /><rect
   style="fill:none"
   id="rect21"
   width="424.31772"
   height="158.50287"
   x="182.10156"
   y="81.54171" /><rect
   style="fill:none"
   id="rect23"
   width="12.974915"
   height="30.706848"
   x="606.41931"
   y="209.33774" /><rect
   style="fill:none"
   id="rect25"
   width="424.31775"
   height="127.79602"
   x="182.10156"
   y="81.54171" /></svg>
