<?xml version="1.0" encoding="utf-8"?>
<!-- Generator: Adobe Illustrator 19.2.1, SVG Export Plug-In . SVG Version: 6.00 Build 0)  -->
<svg version="1.1" id="layer" xmlns="http://www.w3.org/2000/svg" xmlns:xlink="http://www.w3.org/1999/xlink" x="0px" y="0px"
	 viewBox="0 0 652 652" style="enable-background:new 0 0 652 652;" xml:space="preserve">
<style type="text/css">
	.st0{fill:#112970;}
	.st1{fill:#EF4136;}
</style>
<path class="st0" d="M94.5,277.1h8v-17.8c0-2.2-1.9-4-4-4c-2.2,0-4,1.9-4,4C94.5,259.3,94.5,277.1,94.5,277.1z M77.4,277.1h8v-17.8
	c0-2.2-1.9-4-4-4c-2.2,0-4,1.9-4,4C77.4,259.3,77.4,277.1,77.4,277.1z M111.5,277.1h8v-17.8c0-2.2-1.9-4-4-4c-2.2,0-4,1.9-4,4
	C111.5,259.3,111.5,277.1,111.5,277.1z M100.5,211.8c5.4,0.9,7.4,5.7,7.4,9v6.9h4.9v3.9c12.8,6,21.9,19.6,21.9,33.3
	c0,0.2,0,0.2,0,0.3v11.9h29.8v-12.2c-0.6-39.1-28.4-63-65.2-63.5L100.5,211.8z M94.8,220.6v7.1h7.3v-7.1c0-2-1.7-3.7-3.7-3.7
	C96.5,216.9,94.8,218.6,94.8,220.6 M103.9,296.1c-30.7-7.9-42.3-14.5-42.3-34.1c0-14,9.3-26.1,22.4-31.2v-3.1h4.9v-6.9
	c0-3.4,2-8.2,7.6-9l1.2-10.3c-37.1,0.3-68.7,26.1-67.2,60.7c1.7,38.8,44.2,49.6,67,54.5c18.1,3.9,61.3,13.9,72.1,44.5
	C169.7,360.9,173.7,310.4,103.9,296.1 M93.7,350c31,9.4,38.9,21,38.9,37.4c0,24.9-19.3,35.2-43.5,35.2c-23.2,0-43.1-10.8-56.4-24.9
	l-4.9,10.2c9.7,18.4,37.2,35.2,67.8,35.2l0,0l0,0l0,0c39.2,0.3,72.6-18.1,72.6-55c0-39.7-43.2-55.3-67.3-60.5
	c-18.7-4.3-66.4-16.8-74.9-43.5C25.9,284,16.5,330.2,93.7,350"/>
<path class="st1" d="M213.1,299.5c0,0,5.2,4.9,12.2,4.9c3.7,0,7.1-1.9,7.1-5.7c0-8.3-23-6.9-23-21.3c0-7.9,7.1-13.6,16.4-13.6
	c9.6,0,14.7,5.1,14.7,5.1l-3.9,6.9c0,0-4.6-4.2-10.8-4.2c-4.2,0-7.4,2.3-7.4,5.6c0,8.3,23,6.3,23,21.3c0,7.4-5.9,13.7-16.1,13.7
	c-10.8,0-16.8-6.5-16.8-6.5L213.1,299.5z M278.8,304.6c9,0,16.1-7.1,16.1-16.8c0-9.3-7.1-16.2-16.1-16.2c-9,0-16.1,6.9-16.1,16.2
	C262.6,297.5,269.9,304.6,278.8,304.6 M278.8,263.8c14.4,0,25.3,10.5,25.3,23.9c0,13.9-10.8,24.5-25.3,24.5
	c-14.4,0-25.3-10.8-25.3-24.5C253.5,274.3,264.3,263.8,278.8,263.8 M335.2,286.7c4.8,0,7.7-2.8,7.7-7.4c0-4.5-2-7.3-9-7.3h-6.8v14.7
	H335.2z M318.4,264.6h15.7c5.2,0,7.7,0.5,9.9,1.4c4.9,2.2,8,6.6,8,12.8c0,5.6-3.1,10.8-8.3,12.8v0.2c0,0,0.6,0.6,1.7,2.3l10,17.6
	h-9.9l-9.7-17.6h-8.5v17.6h-9V264.6z M386.4,304.3c4.5,0,7.1-2.8,7.1-6.8c0-3.9-2.6-6.8-7.1-6.8h-9.6v13.6H386.4z M385.5,283.7
	c3.9,0,6-2.6,6-6c0-3.4-2-5.9-6.2-5.9h-8.5v11.9H385.5z M368.1,264.6h17.4c8.8,0,15.1,4.3,15.1,12c0,4.3-2.2,8.2-5.9,10v0.2
	c5.4,1.5,7.9,6.3,7.9,11.1c0,9.4-7.9,13.6-16.8,13.6h-17.8V264.6L368.1,264.6z M439.4,304.6c9,0,16.1-7.1,16.1-16.8
	c0-9.3-7.1-16.2-16.1-16.2s-16.1,6.9-16.1,16.2C423.3,297.5,430.4,304.6,439.4,304.6 M439.4,263.8c14.4,0,25.3,10.5,25.3,23.9
	c0,13.9-10.8,24.5-25.3,24.5c-14.4,0-25.3-10.8-25.3-24.5C414.1,274.3,425,263.8,439.4,263.8 M479.8,264.6h9l18.5,27.2
	c1.9,2.8,4,7.3,4,7.3h0.2c0,0-0.5-4.5-0.5-7.3v-27.2h8.8v46.9H511l-18.5-27c-1.9-2.8-4-7.3-4-7.3h-0.2c0,0,0.5,4.5,0.5,7.3v27h-9
	V264.6z M537.4,264.6h9l18.5,27.2c1.9,2.8,4,7.3,4,7.3h0.2c0,0-0.5-4.5-0.5-7.3v-27.2h8.8v46.9h-8.8l-18.5-27c-1.9-2.8-4-7.3-4-7.3
	h-0.2c0,0,0.5,4.5,0.5,7.3v27h-9V264.6z M595.2,264.6v46.9h30.4v-7.3h-21.5v-12.7h16.4v-7.4h-16.4V272h20.4v-7.4H595.2z M209,332.2
	h9v30.4c0,6.3,4.3,9.9,11,9.9c6.6,0,11-3.6,11-10v-30.3h9v30.4c0,10.7-8,17.8-19.9,17.8c-11.9,0-19.9-7.3-19.9-17.8L209,332.2
	L209,332.2z M263.7,332.7h9l18.5,27.2c1.9,2.8,4,7.3,4,7.3h0.2c0,0-0.5-4.5-0.5-7.3v-27.2h8.8v46.9h-8.8l-18.5-27
	c-1.9-2.8-4-7.3-4-7.3h-0.2c0,0,0.5,4.5,0.5,7.3v27h-9V332.7z M319.4,332.7h9v46.9h-9V332.7z M338,332.7h9.6l10.8,30.6
	c0.9,2.8,1.9,6.9,1.9,6.9h0.2c0,0,0.9-4.2,1.9-6.9l10.8-30.6h9.6l-17.9,46.9h-8.8L338,332.7z M392,332.7h29.3v7.3H401v12.4h16.4v7.4
	H401v12.7h21.5v7.3H392V332.7z M452.1,354.7c4.8,0,7.7-2.8,7.7-7.4c0-4.5-2-7.3-9-7.3H444v14.7H452.1z M435.1,332.7h15.7
	c5.2,0,7.7,0.5,9.9,1.4c4.9,2.2,8,6.6,8,12.8c0,5.6-3.1,10.8-8.3,12.8v0.2c0,0,0.6,0.6,1.7,2.3l10,17.6h-9.9l-9.7-17.6H444v17.6h-9
	L435.1,332.7L435.1,332.7z M484.9,367.6c0,0,5.2,4.9,12.2,4.9c3.7,0,7.1-1.9,7.1-5.7c0-8.3-23-6.9-23-21.3c0-7.9,6.9-13.6,16.4-13.6
	c9.6,0,14.7,5.1,14.7,5.1l-3.9,6.9c0,0-4.6-4.2-10.8-4.2c-4.2,0-7.4,2.3-7.4,5.6c0,8.3,23,6.3,23,21.3c0,7.4-5.9,13.7-16.1,13.7
	c-10.8,0-16.8-6.5-16.8-6.5L484.9,367.6z M525.5,332.7h9v46.9h-9V332.7z M560.4,339.9h-16.1v-7.3h40.9v7.3h-16.1v39.7h-8.8V339.9z
	 M595.2,332.7v46.9h30.4v-7.4h-21.5v-12.7h16.5v-7.4h-16.5v-12.4h20.4v-7.1H595.2z M612,320.6l-5.2,9h7.1l7.3-9H612z"/>
</svg>
