<?xml version="1.0" encoding="UTF-8" standalone="no"?>
<svg
   xmlns:dc="http://purl.org/dc/elements/1.1/"
   xmlns:cc="http://creativecommons.org/ns#"
   xmlns:rdf="http://www.w3.org/1999/02/22-rdf-syntax-ns#"
   xmlns:svg="http://www.w3.org/2000/svg"
   xmlns="http://www.w3.org/2000/svg"
   xmlns:sodipodi="http://sodipodi.sourceforge.net/DTD/sodipodi-0.dtd"
   xmlns:inkscape="http://www.inkscape.org/namespaces/inkscape"
   version="1.1"
   id="layer"
   x="0px"
   y="0px"
   viewBox="0 0 144.08002 241.70361"
   xml:space="preserve"
   sodipodi:docname="sorbonne3.svg"
   width="144.08002"
   height="241.70361"
   inkscape:version="1.0.2 (e86c870879, 2021-01-15)"><metadata
   id="metadata13"><rdf:RDF><cc:Work
       rdf:about=""><dc:format>image/svg+xml</dc:format><dc:type
         rdf:resource="http://purl.org/dc/dcmitype/StillImage" /><dc:title></dc:title></cc:Work></rdf:RDF></metadata><defs
   id="defs11" /><sodipodi:namedview
   pagecolor="#ffffff"
   bordercolor="#666666"
   borderopacity="1"
   objecttolerance="10"
   gridtolerance="10"
   guidetolerance="10"
   inkscape:pageopacity="0"
   inkscape:pageshadow="2"
   inkscape:window-width="1920"
   inkscape:window-height="1016"
   id="namedview9"
   showgrid="false"
   fit-margin-top="0"
   fit-margin-left="0"
   fit-margin-right="0"
   fit-margin-bottom="0"
   inkscape:zoom="1.2177914"
   inkscape:cx="322.22085"
   inkscape:cy="319.41348"
   inkscape:window-x="0"
   inkscape:window-y="0"
   inkscape:window-maximized="1"
   inkscape:current-layer="layer" />
<style
   type="text/css"
   id="style2">
	.st0{fill:#112970;}
	.st1{fill:#EF4136;}
</style>
<path
   class="st0"
   d="m 68.908819,75.7 h 8 V 57.9 c 0,-2.2 -1.9,-4 -4,-4 -2.2,0 -4,1.9 -4,4 0,0 0,17.8 0,17.8 z m -17.1,0 h 8 V 57.9 c 0,-2.2 -1.9,-4 -4,-4 -2.2,0 -4,1.9 -4,4 0,0 0,17.8 0,17.8 z m 34.1,0 h 8 V 57.9 c 0,-2.2 -1.9,-4 -4,-4 -2.2,0 -4,1.9 -4,4 0,0 0,17.8 0,17.8 z m -11,-65.3 c 5.4,0.9 7.4,5.7 7.4,9 v 6.9 h 4.9 v 3.9 c 12.800001,6 21.900001,19.6 21.900001,33.3 0,0.2 0,0.2 0,0.3 v 11.9 h 29.8 V 63.5 c -0.6,-39.1 -28.4,-63 -65.200001,-63.5 z m -5.7,8.8 v 7.1 h 7.3 v -7.1 c 0,-2 -1.7,-3.7 -3.7,-3.7 -1.9,0 -3.6,1.7 -3.6,3.7 m 9.1,75.500004 C 47.608819,86.8 36.008819,80.2 36.008819,60.6 c 0,-14 9.3,-26.1 22.4,-31.2 v -3.1 h 4.9 v -6.9 c 0,-3.4 2,-8.2 7.6,-9 l 1.2,-10.3 c -37.1,0.3 -68.6999995,26.1 -67.1999995,60.7 1.6999997,38.800004 44.1999995,49.6 66.9999995,54.5 18.1,3.9 61.300001,13.9 72.100001,44.5 0.1,-0.3 4.1,-50.8 -65.700001,-65.099996 m -10.2,53.899996 c 30.999998,9.4 38.900001,21 38.900001,37.4 0,24.9 -19.300001,35.2 -43.500001,35.2 -23.2,0 -43.1,-10.8 -56.3999998,-24.9 l -4.8999997,10.2 c 9.6999995,18.4 37.1999995,35.2 67.7999995,35.2 v 0 0 0 c 39.200001,0.3 72.600001,-18.1 72.600001,-55 0,-39.7 -43.200003,-55.3 -67.300001,-60.5 -18.7,-4.3 -66.3999998,-16.8 -74.89999951,-43.5 -0.1,-0.1 -9.49999999,46.1 67.69999951,65.9"
   id="path4" />

</svg>
