<?xml version="1.0" encoding="UTF-8" standalone="no"?>
<svg
   xmlns:dc="http://purl.org/dc/elements/1.1/"
   xmlns:cc="http://creativecommons.org/ns#"
   xmlns:rdf="http://www.w3.org/1999/02/22-rdf-syntax-ns#"
   xmlns:svg="http://www.w3.org/2000/svg"
   xmlns="http://www.w3.org/2000/svg"
   xmlns:sodipodi="http://sodipodi.sourceforge.net/DTD/sodipodi-0.dtd"
   xmlns:inkscape="http://www.inkscape.org/namespaces/inkscape"
   version="1.1"
   id="svg2"
   width="1316"
   height="1342"
   viewBox="0 0 1316 1342"
   sodipodi:docname="synsense_logo.svg"
   inkscape:version="1.0.2 (e86c870879, 2021-01-15)">
  <metadata
     id="metadata8">
    <rdf:RDF>
      <cc:Work
         rdf:about="">
        <dc:format>image/svg+xml</dc:format>
        <dc:type
           rdf:resource="http://purl.org/dc/dcmitype/StillImage" />
        <dc:title></dc:title>
      </cc:Work>
    </rdf:RDF>
  </metadata>
  <defs
     id="defs6" />
  <sodipodi:namedview
     pagecolor="#ffffff"
     bordercolor="#666666"
     borderopacity="1"
     objecttolerance="10"
     gridtolerance="10"
     guidetolerance="10"
     inkscape:pageopacity="0"
     inkscape:pageshadow="2"
     inkscape:window-width="1920"
     inkscape:window-height="1016"
     id="namedview4"
     showgrid="false"
     inkscape:zoom="0.59165425"
     inkscape:cx="658"
     inkscape:cy="671"
     inkscape:window-x="0"
     inkscape:window-y="0"
     inkscape:window-maximized="1"
     inkscape:current-layer="g10" />
  <g
     inkscape:groupmode="layer"
     inkscape:label="Image"
     id="g10">
    <path
       style="fill:#000000"
       d="m 846.84062,1331.5532 c -50.1578,-4.4025 -98.91317,-19.1637 -142.34534,-43.0967 -14.0543,-7.7446 -36.52527,-22.2688 -46.4031,-29.9928 l -6.24841,-4.886 -12.25159,8.4007 c -53.56629,36.7294 -107.12147,56.7087 -170.7516,63.7007 -15.66391,1.7212 -51.89437,1.4382 -68.5,-0.5351 -77.19628,-9.1732 -144.44623,-41.4884 -200.87656,-96.5258 -64.89398,-63.2921 -104.173807,-146.3758 -114.652197,-242.50931 -0.59949,-5.5 -1.35152,-22.15 -1.67119,-37 l -0.58121,-27 -8.19178,-12.5 C 39.728273,856.75196 19.106233,798.40067 11.177363,730.8082 9.0554934,712.71956 8.7512134,662.14517 10.658753,644.60885 c 8.04001,-73.91319 30.50285,-139.81718 66.64852,-195.54083 l 5.21576,-8.04083 0.61595,-22.95917 c 1.72738,-64.38748 16.52862,-124.58665 44.738497,-181.95917 62.5487,-127.2099 178.14257,-210.787396 307.79948,-222.547346 16.99984,-1.5419 58.38627,-0.70035 74.16362,1.50804 46.12398,6.45606 89.60859,21.62371 128.31529,44.75703 6.70159,4.00526 12.47397,7.4162 12.82751,7.57988 0.35354,0.16368 5.1109,-2.62994 10.5719,-6.20804 92.53934,-60.63257957 210.85444,-70.9360596 314.78534,-27.41312 117.78718,49.32554 206.49418,158.184416 236.98648,290.823556 6.5995,28.70719 9.5306,53.71381 10.1977,87 l 0.531,26.5 6.7674,10.5 c 48.209,74.79958 72.0406,158.91365 69.6977,246 -0.6794,25.25569 -1.6011,35.39141 -5.3199,58.5 -9.4575,58.76903 -32.9702,117.50504 -65.183,162.83064 l -6.1648,8.6743 -0.3831,30.7475 c -0.4071,32.6804 -1.6155,46.64001 -6.2536,72.24761 -21.5864,119.1799 -91.2511,216.6989 -191.3759,267.8942 -36.26378,18.5422 -71.70838,29.5005 -111.99998,34.6266 -15.0077,1.9094 -52.4106,2.704 -67,1.4235 z m -372.00004,-34.4191 c 60.49809,-8.079 118.39712,-32.7296 166.23597,-70.7752 5.3597,-4.2625 10.19921,-7.75 10.75447,-7.75 0.6739,0 1.00956,-40.5633 1.00956,-122 0,-117.27361 0.0705,-122.00001 1.81846,-122.00001 1.00016,0 20.68766,2.2488 43.75,4.9974 46.42186,5.5327 51.18081,6.6141 63.93158,14.5288 28.0208,17.39311 39.4502,52.75331 39.4901,122.17461 0.01,9.4604 0.5153,19.5854 1.1331,22.5 2.1936,10.3494 7.802,18.1364 16.2867,22.6134 l 5.0901,2.6858 h 47.5 47.5 l 5.09,-2.6858 c 5.585,-2.9469 10.3562,-7.8284 13.3091,-13.6166 3.8977,-7.64 4.237,-13.5115 3.9124,-67.6976 -0.3095,-51.6636 -0.3265,-52.037 -2.6225,-57.721 -2.4883,-6.1597 -8.8392,-13.4534 -14.3139,-16.4386 -3.0533,-1.665 -6.9983,-1.8932 -41.3751,-2.3938 l -38,-0.5534 -8.7256,-3.12501 c -12.4398,-4.4551 -20.3122,-8.9191 -27.3882,-15.5305 -7.5825,-7.0845 -13.6943,-16.2899 -17.2167,-25.931 l -2.6695,-7.3067 -0.2875,-59.2113 c -0.2517,-51.87236 -0.087,-59.99074 1.3275,-65.50001 4.643,-18.08054 17.2378,-33.48657 34.0959,-41.70627 12.0295,-5.86533 14.0964,-6.05145 67.3842,-6.06768 45.9661,-0.014 48.9138,0.0939 56,2.04942 16.8176,4.64111 32.1858,17.34493 39.8435,32.9358 7.1521,14.56136 7.3251,16.28784 8.0201,80.00004 l 0.6163,56.5 2.5902,5.5 c 3.49948,7.431 6.74038,11.036 13.07708,14.546 l 5.3327,2.954 h 48 48 l 5.3327,-2.954 c 6.0727,-3.3639 9.1223,-6.6405 12.9727,-13.9386 l 2.6946,-5.1074 0.2824,-55.9429 c 0.2557,-50.66149 0.1197,-56.46029 -1.4413,-61.42316 -2.0878,-6.63738 -6.4306,-12.54676 -12.2057,-16.60855 l -4.3015,-3.02543 -33.667,-0.60121 c -30.2864,-0.54084 -34.4702,-0.81927 -41.6669,-2.77289 -15.7226,-4.26805 -28.2779,-11.78865 -39.2345,-23.50122 -7.83948,-8.38043 -13.30238,-17.64713 -17.46438,-29.62468 l -3.3011,-9.5 -0.288,-76 c -0.2524,-66.60771 -0.089,-76.98113 1.3187,-83.93905 3.0321,-14.98181 9.4715,-27.2856 20.27328,-38.73605 7.81,-8.27905 13.3656,-12.45964 22.9491,-17.26926 13.9535,-7.00276 18.8258,-7.75488 55.2469,-8.52814 36.2893,-0.77047 36.5657,-0.82069 44.4321,-8.07165 2.4979,-2.3025 5.5051,-6.57666 7.1825,-10.20837 l 2.8854,-6.24748 v -56.5 -56.5 l -2.6011,-5.54563 c -3.501,-7.4641 -7.9449,-12.30009 -14.1398,-15.38712 l -5.1518,-2.56725 h -46.6255 c -52.9406,0 -52.8072,-0.0167 -60.3669,7.54295 -5.1601,5.16011 -8.43128,11.69853 -9.68658,19.36098 -0.5042,3.07784 -0.9193,25.71592 -0.9225,50.30685 -0.01,48.25872 -0.8028,60.77525 -4.646,73.00373 -2.7467,8.74007 -10.1509,20.55713 -16.4409,26.23977 -6.7545,6.10223 -15.7661,11.39891 -24.3405,14.30642 l -8.0784,2.7393 h -50.5 c -56.2193,0 -55.2892,0.0956 -69.0255,-7.09554 -12.3826,-6.48251 -21.5425,-15.77359 -27.5104,-27.90446 -6.6238,-13.46404 -6.5703,-12.78693 -6.2515,-79.17015 l 0.2874,-59.82985 3.1201,-7.69098 c 6.2092,-15.30571 16.8015,-26.91664 30.8799,-33.84953 14.4264,-7.10434 15.6288,-7.2689 58,-7.93828 32.8765,-0.51939 38.5005,-0.83066 41.7127,-2.30863 8.5023,-3.91205 15.0239,-12.35661 17.4268,-22.56513 1.655,-7.0317 1.952,-101.75515 0.3456,-110.22601 -2.1699,-11.44144 -9.714,-21.2781 -18.6557,-24.32484 -7.0633,-2.40674 -93.6495,-2.38836 -100.7217,0.0214 -6.5013,2.21525 -13.7818,9.65487 -16.7275,17.09331 -2.2345,5.6425 -2.3093,6.96329 -2.9625,52.28872 -0.6167,42.80283 -0.8385,47.15944 -2.7892,54.79389 -7.5956,29.72642 -26.7418,52.1875 -53.62854,62.91357 l -7,2.79254 -42.75,0.29973 -42.75,0.29971 -0.0494,-130.79974 -0.0494,-130.79973 -13.20057,-8.669366 c -39.98583,-26.26039 -78.72898,-41.65666 -124.136,-49.33082 -92.69638,-15.66645 -189.91636,13.05335 -266.06457,78.598256 -11.73756,10.10316 -33.57207,32.08163 -42.98319,43.26658 -50.04091,59.47281 -81.79754,131.86005 -92.62608,211.13535 -1.47338,10.7865 -2.20391,22.98192 -2.60069,43.4155 l -0.55177,28.4155 -7.25977,11.0845 c -28.912677,44.14503 -49.247407,94.79417 -59.445997,148.06638 -6.22495,32.51595 -8.71237,77.29964 -6.06539,109.20192 5.67496,68.39657 29.18632,134.74117 66.065957,186.42564 l 6.85686,9.6095 0.44402,33.3905 c 0.30762,23.1331 0.94059,36.9233 2.06045,44.8906 6.88661,48.99481 19.38948,89.50361 39.96963,129.50001 18.21732,35.4044 36.84998,60.6797 65.29477,88.5727 29.95628,29.3752 62.23012,50.8618 99.8412,66.4702 25.99118,10.7862 57.08541,18.7008 84,21.381 6.05,0.6025 12.575,1.2767 14.5,1.4983 7.45525,0.8581 47.07202,-0.4377 58,-1.897 z m 25.5,-123.184 c -7.75614,-4.0818 -12.44049,-11.4485 -12.47804,-19.6233 -0.0226,-4.9228 1.94474,-10.9186 4.51422,-13.7579 1.308,-1.4453 -4.78844,-9.8771 -58.59224,-81.0366 -33.02867,-43.6829 -60.59029,-79.94601 -61.24804,-80.58461 -0.91465,-0.8881 -8.29707,2.7571 -31.39115,15.5 l -30.19525,16.66121 0.57922,4.2357 c 1.76305,12.893 -8.46975,24.296 -21.75444,24.2423 -9.60334,-0.039 -18.11339,-5.9306 -20.94095,-14.4982 -1.99433,-6.0429 -0.85254,-14.7867 2.57704,-19.735 4.20098,-6.06131 12.1207,-9.96221 19.39395,-9.55261 l 5.46431,0.3078 16.76676,-37 c 9.22172,-20.35 16.77527,-37.0069 16.78568,-37.0154 0.0104,-0.01 -39.28706,-51.9834 -87.32772,-115.49998 -77.2242,-102.10135 -87.62516,-115.4494 -89.75,-115.1804 -1.32184,0.16734 -5.10335,0.38509 -8.40335,0.48387 -7.51829,0.22506 -13.53975,-2.83479 -17.9556,-9.12427 -2.7952,-3.9812 -3.0444,-5.01041 -3.0444,-12.57327 0,-7.13556 0.33433,-8.73062 2.5,-11.92728 3.98868,-5.88755 9.47419,-9.00041 16.70471,-9.47946 3.4126,-0.22609 7.47619,0.0322 9.03022,0.5739 l 2.8255,0.98498 86.46979,-114.46412 c 47.55838,-62.95526 86.57079,-114.98488 86.69424,-115.62136 0.12345,-0.63649 -6.8925,-16.68225 -15.59101,-35.65725 l -15.81547,-34.5 -3.79032,0.34319 c -12.68598,1.14863 -23.86296,-9.09637 -23.83024,-21.84319 0.0169,-6.57253 1.92331,-11.46688 6.08928,-15.63285 5.01741,-5.01741 9.50048,-6.63312 17.19797,-6.19817 8.32787,0.47056 13.63946,3.62713 17.66656,10.49887 2.30031,3.92517 2.75153,5.83309 2.70038,11.41817 l -0.0614,6.70554 28.41652,14.66701 c 15.62908,8.06686 28.79575,14.52626 29.25926,14.35422 0.46351,-0.17203 28.51293,-36.95724 62.33205,-81.74491 l 61.4893,-81.43211 -2.5864,-3.90832 c -1.82262,-2.75417 -2.71253,-5.65195 -3.0135,-9.81282 -1.03242,-14.27312 10.75677,-25.34779 24.9109,-23.4011 14.41254,1.98223 23.12352,18.13382 16.81187,31.17196 -2.22584,4.59796 -7.97518,10.0156 -11.61576,10.9456 -1.74711,0.4463 -2.10969,1.11481 -1.74436,3.21616 0.25366,1.45901 6.08852,48.55275 12.96637,104.65275 6.87785,56.1 12.68545,102.49543 12.90578,103.10096 0.22033,0.60552 2.86722,1.35553 5.88197,1.66668 10.72735,1.10716 23.20096,9.62863 29.09007,19.87317 1.46728,2.55244 3.3673,7.95244 4.22227,12 3.89887,18.45783 -5.3193,37.08699 -22.34129,45.14991 -6.36645,3.01564 -7.46915,3.21301 -18.27526,3.27111 l -11.5,0.0618 -37.75,83.37655 c -20.7625,45.85713 -37.75,83.5168 -37.75,83.6882 0,0.17139 39.83614,0.31162 88.52475,0.31162 h 88.52475 l 0.97712,-2.75 c 2.67956,-7.54134 7.96025,-12.59687 14.72338,-14.09559 l 4.25,-0.94182 v 20.39371 20.3937 h -2.59887 c -6.14875,0 -14.57619,-6.9676 -15.94049,-13.1792 l -0.61955,-2.8208 h -89.95573 c -85.36208,0 -89.90792,0.0894 -89.01957,1.75 0.51488,0.9625 17.44382,37.975 37.61987,82.25 20.17605,44.275 37.02905,80.86093 37.45111,81.30208 0.42206,0.44114 3.67654,0.26604 7.23217,-0.38911 17.27906,-3.18379 36.10074,6.66477 43.52984,22.77725 10.33258,22.40962 -1.23071,49.14292 -24.34436,56.28202 -3.6108,1.1153 -7.82814,2.0278 -9.37186,2.0278 -2.47223,0 -2.87681,0.4469 -3.39446,3.75 -0.32324,2.0625 -5.98147,48.75 -12.57386,103.75001 -6.59239,55 -12.20561,101.2344 -12.47383,102.7431 -0.42,2.3626 0.029,3.0089 3.23596,4.6584 16.30491,8.3866 16.31261,30.8062 0.0135,39.1901 -4.65438,2.3941 -14.96139,2.5274 -19.28984,0.2496 z m 5.37524,-41.3412 c 1.1037,0 2.28295,-0.4469 2.62057,-0.9932 0.46595,-0.7539 23.9212,-191.64511 25.66408,-208.86781 0.33353,-3.2959 0.21868,-3.4049 -5.94044,-5.6351 -7.19505,-2.6054 -13.02479,-6.3793 -17.19948,-11.134 l -2.89924,-3.302 -63.81036,35.0805 c -35.09571,19.2943 -64.18143,35.4226 -64.63495,35.8407 -0.62421,0.5753 70.86694,96.22901 116.04341,155.26371 3.73988,4.8871 4.68426,5.6018 6.276,4.75 1.03053,-0.5516 2.77671,-1.0028 3.88041,-1.0028 z M 346.60119,983.10889 c 11.25861,-6.1334 20.01378,-11.5042 19.78935,-12.1397 -1.03963,-2.9436 -31.0065,-41.3038 -31.71384,-40.5965 -0.44303,0.4431 -7.8056,16.2666 -16.36127,35.1633 l -15.55575,34.3578 2.19332,2.33471 2.19332,2.3347 9.6315,-5.22721 c 5.29733,-2.8749 18.71784,-10.1771 29.82337,-16.2271 z m 91.8363,-50.6232 c 35.1467,-19.3177 64.27464,-35.4618 64.72875,-35.8756 0.45412,-0.4139 0.11662,-3.1402 -0.75,-6.0584 -1.9472,-6.557 -2.03197,-17.1088 -0.18669,-23.2402 l 1.38896,-4.61515 -55.45111,-29.04375 c -30.49812,-15.97406 -55.80656,-29.04374 -56.24099,-29.04374 -1.01712,0 -53.39155,115.61934 -52.93199,116.85014 0.57968,1.5527 34.3033,46.0414 34.94307,46.0975 0.3283,0.029 29.3533,-15.7531 64.5,-35.0708 z m -79.1681,-75.5011 c 13.94082,-30.73166 25.05889,-56.19176 24.70681,-56.578 -0.82099,-0.90066 -220.30243,-115.89867 -221.63562,-116.1267 -0.55,-0.0941 -0.95493,0.51189 -0.89984,1.34658 0.08,1.21152 164.48899,219.78612 170.17371,226.23852 0.85096,0.9659 1.71838,1.5849 1.9276,1.3757 0.20921,-0.2092 11.78652,-25.5245 25.72734,-56.2561 z m 151.54931,-5.1279 c 1.93703,-2.06369 5.04351,-4.89271 6.90328,-6.2867 l 3.38139,-2.53453 -36.82172,-80.72298 c -20.25194,-44.39764 -37.14295,-80.38113 -37.53556,-79.96331 -0.39262,0.41783 -12.28406,26.36264 -26.42544,57.65515 -23.82596,52.72289 -25.57475,56.97531 -23.84583,57.9842 5.76327,3.36308 109.02853,57.44008 109.84388,57.52202 0.53796,0.0541 2.56296,-1.59016 4.5,-3.65385 z M 414.86604,734.10885 c 14.419,-31.9 26.4351,-58.5625 26.70244,-59.25 0.38743,-0.99631 -27.55666,-1.25 -137.69046,-1.25 H 165.70148 l 0.31955,2.0373 c 0.25005,1.59422 24.35194,14.62283 110.81955,59.90504 60.775,31.82725 110.79455,57.57296 111.15455,57.21269 0.36,-0.36026 12.45191,-26.75503 26.87091,-58.65503 z m 7.83544,-106.75 c -9.8743,-21.5875 -22.08908,-48.37497 -27.14396,-59.52771 -5.05488,-11.15273 -9.70341,-20.15273 -10.33007,-20 -0.62666,0.15274 -50.24506,26.11779 -110.26312,57.7001 -84.07977,44.24391 -109.12375,57.84183 -109.12375,59.25 0,1.76128 4.987,1.82761 137.40708,1.82761 h 137.40708 z m 80.4509,-88.25 19.53682,-43 -2.63164,-2 c -1.44741,-1.1 -4.77816,-3.96455 -7.40168,-6.36567 -2.65282,-2.42794 -5.38377,-4.13017 -6.15275,-3.83508 -2.32332,0.89154 -112.113,58.80028 -112.87326,59.53518 -0.3909,0.37785 11.01289,26.33218 25.34174,57.67628 14.32886,31.34411 26.48995,58.10676 27.02466,59.47255 0.85864,2.19325 3.11217,-2.24474 19.29573,-38 10.07795,-22.26579 27.11512,-59.83326 37.86038,-83.48326 z m -231.50875,59.83729 c 60.33332,-31.71449 110.03556,-57.9506 110.44942,-58.30247 0.67888,-0.57719 -48.37855,-109.49547 -50.12456,-111.28756 -0.79062,-0.81148 -170.4141,223.14453 -170.95123,225.70904 -0.17783,0.84904 -0.0415,1.5437 0.30304,1.5437 0.34451,0 49.99,-25.94822 110.32333,-57.66271 z m 175.22969,-92.27848 c 30.50699,-16.04389 55.83881,-29.53957 56.29292,-29.99042 0.45412,-0.45084 0.11662,-3.20735 -0.75,-6.12556 -1.95157,-6.57166 -2.03089,-17.11236 -0.17517,-23.27845 l 1.40049,-4.65348 -16.15049,-8.40355 c -8.88277,-4.62195 -37.75049,-19.52579 -64.15049,-33.11965 -26.4,-13.59386 -48.74603,-25.10835 -49.65783,-25.58776 -1.3567,-0.71332 -4.85413,3.35801 -19.25417,22.41363 l -17.59634,23.28529 26.25417,57.67817 c 14.43979,31.72299 26.7189,57.51488 27.28691,57.31532 0.56801,-0.19956 25.99301,-13.48965 56.5,-29.53354 z m 66.5228,-76.96188 c 5.82062,-5.44491 14.53911,-10.09693 18.92296,-10.09693 0.7719,0 1.63297,-0.37135 1.91348,-0.82521 0.47345,-0.76606 -25.01032,-210.27644 -25.61751,-210.60994 -0.15096,-0.0829 -2.28295,-0.65702 -4.73776,-1.2758 -3.85288,-0.97118 -4.62432,-0.89693 -5.64082,0.54295 -0.64764,0.9174 -28.20538,37.44178 -61.23942,81.16529 -33.03403,43.72352 -59.74399,79.81519 -59.35545,80.20373 0.69115,0.69115 128.33701,66.729 129.07155,66.77543 0.20491,0.0129 3.21225,-2.63283 6.68297,-5.87952 z M 349.34058,392.42566 c 8.25,-11.05708 15.12084,-20.40172 15.26853,-20.76588 0.14769,-0.36415 -5.70231,-3.73871 -13,-7.49901 -7.29769,-3.76031 -20.01853,-10.34274 -28.26853,-14.62762 l -15,-7.79071 -2.77969,2.41078 -2.77969,2.41078 13.15069,28.77242 c 7.23288,15.82484 13.98025,30.68493 14.99416,33.02243 1.0139,2.3375 2.19695,4.23213 2.62899,4.2103 0.43205,-0.0218 7.53554,-9.08641 15.78554,-20.14349 z m 303.5,496.68323 v -58.50004 h 2.3185 c 3.9147,0 12.89964,3.02689 18.61192,6.27008 16.35013,9.28289 27.99367,30.61396 28.05222,51.39196 0.0785,27.8423 -16.54991,51.5623 -40.52419,57.8068 -3.23326,0.8421 -6.4591,1.5312 -7.16855,1.5312 -1.0385,0 -1.2899,-11.4016 -1.2899,-58.5 z m 0.75,-77.07438 c -0.4125,-0.41745 -0.75,-28.13399 -0.75,-61.59233 0,-54.27382 0.1671,-60.83333 1.54966,-60.83333 0.85231,0 2.98981,-0.72538 4.75,-1.61195 10.70207,-5.39044 15.16853,-17.49765 10.13143,-27.4632 -2.08743,-4.12984 -8.99274,-9.75199 -12.87143,-10.47963 l -3.55966,-0.6678 v -62.38871 -62.38871 l 30.75,0.008 c 16.9125,0.004 33.675,0.46905 37.25,1.03308 41.31064,6.51773 74.49964,43.17874 80.92754,89.3937 1.4253,10.2475 1.4253,96.88384 0,107.13134 -5.0724,36.46953 -27.8936,68.66225 -58.51753,82.54781 -14.57434,6.60832 -18.51662,7.15142 -55.41001,7.63346 -18.425,0.24074 -33.8375,0.0962 -34.25,-0.32128 z m -0.21835,-307.22734 c -0.29241,-0.29241 -0.53165,-26.61933 -0.53165,-58.50428 v -57.97262 l 5.25,0.61684 c 6.79404,0.79825 18.1874,6.45131 24.57275,12.19228 6.44368,5.79343 12.44777,15.32376 15.87029,25.19103 2.32902,6.71463 2.70545,9.41958 2.75248,19.77843 0.0448,9.87976 -0.35877,13.32515 -2.28441,19.5 -5.43438,17.42619 -17.72391,31.36755 -32.2038,36.53228 -5.45944,1.94729 -12.7055,3.3862 -13.42566,2.66604 z"
       id="path14" />
  </g>
</svg>
